<?xml version="1.0" encoding="UTF-8"?>
<svg width="366px" height="115px" viewBox="0 0 366 115" version="1.1" xmlns="http://www.w3.org/2000/svg" xmlns:xlink="http://www.w3.org/1999/xlink">
    <!-- Generator: Sketch 61.2 (89653) - https://sketch.com -->
    <title>Page 1</title>
    <desc>Created with Sketch.</desc>
    <g id="elementos" stroke="none" stroke-width="1" fill="none" fill-rule="evenodd">
        <g id="logo" transform="translate(-222.000000, -442.000000)">
            <g id="Page-1" transform="translate(222.000000, 442.000000)">
                <polygon id="Fill-1" fill="#00376F" points="17.066 114.642 365.608 114.642 365.608 0 17.066 0"></polygon>
                <g id="Group-6" transform="translate(161.000000, 28.642000)" fill="#FFFFFF">
                    <path d="M57.8755,0.2188 L69.2605,0.2188 L69.2605,34.3648 C69.2605,40.6568 74.3565,45.7478 80.6455,45.7478 C86.9355,45.7478 92.0265,40.6568 92.0265,34.3648 L92.0265,0.2188 L103.4055,0.2188 L103.4055,34.3648 C103.4055,46.9458 93.2155,57.1348 80.6455,57.1348 C68.0685,57.1348 57.8755,46.9458 57.8755,34.3648 L57.8755,0.2188 Z" id="Fill-2"></path>
                    <path d="M13.3047,11.6002 L12.3297,11.6002 L12.3297,17.2922 L12.3297,22.9872 L13.3047,22.9872 L29.4157,22.9872 C32.5587,22.9872 35.1097,20.4412 35.1097,17.2922 C35.1097,14.1522 32.5587,11.6002 29.4157,11.6002 L13.3047,11.6002 Z M17.1557,34.3652 L12.3297,34.3652 L12.3297,57.1332 L0.9527,57.1332 L0.9527,0.2192 L29.4157,0.2192 C38.8447,0.2192 46.4837,7.8622 46.4837,17.2922 C46.4837,26.1282 39.7877,33.3862 31.1857,34.2722 L46.4597,57.1332 L32.3767,57.1332 L17.1557,34.3652 Z" id="Fill-4"></path>
                </g>
                <polygon id="Fill-7" fill="#FFFFFF" points="82.0782 40.2422 82.0782 28.8602 48.1102 28.8602 48.1102 85.7752 59.4972 85.7752 59.4972 63.0072 82.0782 63.0072 82.0782 51.6312 59.4972 51.6312 59.4972 40.2422"></polygon>
                <g id="Group-12" transform="translate(93.000000, 28.642000)">
                    <path d="M0.6539,28.6764 C0.6539,12.9544 13.3929,0.2184 29.1049,0.2184 C44.8349,0.2184 57.5709,12.9544 57.5709,28.6764 C57.5709,44.3954 44.8349,57.1344 29.1049,57.1344 C13.3929,57.1344 0.6539,44.3954 0.6539,28.6764" id="Fill-8" fill="#FFFFFF"></path>
                    <path d="M12.0347,28.6764 C12.0347,19.2444 19.6747,11.6004 29.1057,11.6004 C38.5357,11.6004 46.1867,19.2444 46.1867,28.6764 C46.1867,38.1084 38.5357,45.7464 29.1057,45.7464 C19.6747,45.7464 12.0347,38.1084 12.0347,28.6764" id="Fill-10" fill="#009EE5"></path>
                </g>
                <polygon id="Fill-13" fill="#FFFFFF" points="289.0215 28.8608 306.1045 50.2048 323.1765 28.8608 334.5565 28.8608 334.5565 85.7768 323.1765 85.7768 323.1765 46.7438 306.1045 68.0558 289.0215 46.7438 289.0215 85.7768 277.6445 85.7768 277.6445 28.8608"></polygon>
                <polygon id="Fill-14" fill="#009EE5" points="0 114.642 17.066 114.642 17.066 0 0 0"></polygon>
                <path d="M353.9874,18.7163 C357.9944,18.7163 361.1724,15.5493 361.1724,11.5713 C361.1724,7.5923 357.9944,4.4293 353.9874,4.4293 C349.9744,4.4293 346.8094,7.5923 346.8094,11.5713 C346.8094,15.5493 349.9744,18.7163 353.9874,18.7163 L353.9874,18.7163 Z M353.9874,17.6153 C350.7104,17.6153 347.9154,14.9353 347.9154,11.5713 C347.9154,8.2013 350.7104,5.5313 353.9874,5.5313 C357.2654,5.5313 360.0654,8.2013 360.0654,11.5713 C360.0654,14.9353 357.2654,17.6153 353.9874,17.6153 L353.9874,17.6153 Z M355.0364,11.8323 C356.4244,11.7943 357.5054,11.2273 357.5054,9.6853 C357.5054,8.0083 356.1274,7.6193 354.7174,7.6193 L351.3214,7.6193 L351.3214,15.4333 L352.4104,15.4333 L352.4104,11.8323 L353.7324,11.8323 L356.0774,15.4333 L357.3994,15.4333 L355.0364,11.8323 Z M352.4104,10.7303 L352.4104,8.7163 L354.5084,8.7163 C355.3454,8.7163 356.4144,8.8603 356.4144,9.6673 C356.4144,10.9113 354.7024,10.7303 353.7324,10.7303 L352.4104,10.7303 Z" id="Fill-15" fill="#FFFFFF"></path>
            </g>
        </g>
    </g>
</svg>